Little Soldiers (1996) VCDRip Telugu Movie - teluguppls

General

Format                           : MPEG-4
Format profile                   : Base Media
Codec ID                         : isom
File size                        : 620 MiB
Duration                         : 2h 21mn
Overall bit rate                 : 615 Kbps


Video

Format                           : AVC
Format/Info                      : Advanced Video Codec
Format profile                   : High@L4.1
Format settings, CABAC           : Yes
Format settings, ReFrames        : 3 frames
Codec ID                         : avc1
Codec ID/Info                    : Advanced Video Coding
Duration                         : 2h 21mn
Bit rate mode                    : Variable
Bit rate                         : 564 Kbps
Maximum bit rate                 : 14.0 Mbps
Width                            : 608 pixels
Height                           : 256 pixels
Display aspect ratio             : 2.35:1
Frame rate mode                  : Constant
Frame rate                       : 25.000 fps
Color space                      : YUV
Chroma subsampling               : 4:2:0
Bit depth                        : 8 bits
Scan type                        : Progressive
Bits/(Pixel*Frame)               : 0.145
Stream size                      : 567 MiB (92%)


Audio
ID                               : 2
Format                           : AAC
Format/Info                      : Advanced Audio Codec
Format profile                   : LC
Codec ID                         : 40
Duration                         : 2h 21mn
Bit rate mode                    : Variable
Bit rate                         : 48.0 Kbps
Maximum bit rate                 : 53.6 Kbps
Channel(s)                       : 2 channels
Channel positions                : Front: L R
Sampling rate                    : 48.0 KHz
Compression mode                 : Lossy
Stream size                      : 48.4 MiB (8%)


PLease SEEEEEEEEEEEEDDDDDDDDDDDDD...................

please comment.....
